<svg width="20" height="21" viewBox="0 0 20 21" fill="none" xmlns="http://www.w3.org/2000/svg">
<path d="M14.2086 17.4C13.392 18.1917 12.5003 18.0667 11.642 17.6917C10.7336 17.3083 9.9003 17.2917 8.94197 17.6917C7.74197 18.2083 7.10863 18.0583 6.39197 17.4C2.3253 13.2083 2.9253 6.825 7.54197 6.59167C8.66697 6.65 9.4503 7.20833 10.1086 7.25833C11.092 7.05833 12.0336 6.48333 13.0836 6.55833C14.342 6.65833 15.292 7.15833 15.917 8.05833C13.317 9.61667 13.9336 13.0417 16.317 14C15.842 15.25 15.2253 16.4917 14.2003 17.4083L14.2086 17.4ZM10.0253 6.54167C9.9003 4.68333 11.4086 3.15 13.142 3C13.3836 5.15 11.192 6.75 10.0253 6.54167Z" fill="black"/>
</svg>
