<svg width="289" height="58" viewBox="0 0 289 58" fill="none" xmlns="http://www.w3.org/2000/svg">
<path d="M39.9647 24.12H28.2847C27.5647 14.52 24.8447 10.2 20.4447 10.2C15.2447 10.2 12.4447 15.88 12.4447 29C12.4447 42.12 15.2447 47.8 20.4447 47.8C25.0047 47.8 27.7247 43.24 28.3647 33.08H39.9647C38.9247 49.4 31.7247 57.96 20.3647 57.96C7.72468 57.96 0.204684 48.12 0.204684 29C0.204684 9.88 7.72468 0.039999 20.3647 0.039999C31.5647 0.039999 38.8447 8.28 39.9647 24.12ZM64.6284 57.96C51.8284 57.96 44.1484 48.12 44.1484 29C44.1484 9.88 51.8284 0.039999 64.6284 0.039999C77.3484 0.039999 85.0284 9.88 85.0284 29C85.0284 48.12 77.3484 57.96 64.6284 57.96ZM64.6284 47.8C69.9084 47.8 72.7884 42.12 72.7884 29C72.7884 15.88 69.9084 10.2 64.6284 10.2C59.2684 10.2 56.3884 15.88 56.3884 29C56.3884 42.12 59.2684 47.8 64.6284 47.8ZM89.9878 57V0.999996H103.348L110.388 19.24L117.348 37.72L117.188 19.24L117.108 0.999996H127.268V57H113.828L106.788 38.92L99.9078 20.76L100.148 38.92L100.228 57H89.9878ZM145.074 57V10.92H131.554V0.999996H170.834V10.92H157.234V57H145.074ZM165.085 57L179.005 0.999996H194.205L208.125 57H195.565L193.005 45.24H179.485L176.845 57H165.085ZM181.645 35.4L181.485 36.04H191.005L190.845 35.4L186.205 13.64L181.645 35.4ZM248.355 24.12H236.675C235.955 14.52 233.235 10.2 228.835 10.2C223.635 10.2 220.835 15.88 220.835 29C220.835 42.12 223.635 47.8 228.835 47.8C233.395 47.8 236.115 43.24 236.755 33.08H248.355C247.315 49.4 240.115 57.96 228.755 57.96C216.115 57.96 208.595 48.12 208.595 29C208.595 9.88 216.115 0.039999 228.755 0.039999C239.955 0.039999 247.235 8.28 248.355 24.12ZM262.687 57V10.92H249.167V0.999996H288.447V10.92H274.847V57H262.687Z" fill="url(#paint0_linear_178_1340)" fill-opacity="0.02"/>
<defs>
<linearGradient id="paint0_linear_178_1340" x1="144" y1="-33" x2="144" y2="93" gradientUnits="userSpaceOnUse">
<stop/>
<stop offset="1" stop-color="#525252"/>
</linearGradient>
</defs>
</svg>
