<svg width="193" height="89" viewBox="0 0 193 89" fill="none" xmlns="http://www.w3.org/2000/svg">
<path d="M0.0316407 72V2H41.7316V14.4H15.2316V29.9H35.1316V42.2H15.2316V72H0.0316407ZM36.0434 72L53.4434 2H72.4434L89.8434 72H74.1434L70.9434 57.3H54.0434L50.7434 72H36.0434ZM56.7434 45L56.5434 45.8H68.4434L68.2434 45L62.4434 17.8L56.7434 45ZM124.532 88.5C114.332 88.5 109.332 84 109.332 74.9V72.4C97.4316 69.3 90.4316 57.3 90.4316 37C90.4316 13.1 100.032 0.799999 116.032 0.799999C131.932 0.799999 141.532 13.1 141.532 37C141.532 57.1 134.832 68.8 123.032 72V73.9C123.032 76.5 124.432 77.7 127.532 77.7C129.132 77.7 131.132 77.5 132.832 77.2V87.8C130.432 88.2 127.232 88.5 124.532 88.5ZM105.732 37C105.732 53.4 109.332 60.5 116.032 60.5C122.632 60.5 126.232 53.4 126.232 37C126.232 20.6 122.632 13.5 116.032 13.5C109.332 13.5 105.732 20.6 105.732 37ZM170.431 73.1C155.431 73.1 147.131 64.3 146.331 48.1H160.631C161.131 57.1 163.931 61 169.931 61C174.931 61 177.631 58 177.631 54.2C177.631 48.3 172.131 45.6 165.831 42.6C157.131 38.5 146.731 33.9 146.731 20.4C146.731 8.8 154.831 0.899997 167.731 0.899997C181.531 0.899997 190.231 9.2 191.231 24.8H177.331C176.631 17.1 173.531 13.1 168.131 13.1C163.731 13.1 161.431 15.5 161.431 19.2C161.431 24.8 167.031 27.5 173.531 30.6C182.131 34.7 192.231 39.4 192.231 52.9C192.231 64.7 183.831 73.1 170.431 73.1Z" fill="url(#paint0_linear_154_1969)" fill-opacity="0.03"/>
<defs>
<linearGradient id="paint0_linear_154_1969" x1="95.6322" y1="-20.5" x2="95.6322" y2="90" gradientUnits="userSpaceOnUse">
<stop/>
<stop offset="1" stop-color="#666666"/>
</linearGradient>
</defs>
</svg>
