<svg width="21" height="21" viewBox="0 0 21 21" fill="none" xmlns="http://www.w3.org/2000/svg">
<path d="M18.6716 8.86792H18.0003V8.83334H10.5003V12.1667H15.2099C14.5228 14.1071 12.6766 15.5 10.5003 15.5C7.73908 15.5 5.50033 13.2613 5.50033 10.5C5.50033 7.73876 7.73908 5.50001 10.5003 5.50001C11.7749 5.50001 12.9345 5.98084 13.8174 6.76625L16.1745 4.40917C14.6862 3.02209 12.6953 2.16667 10.5003 2.16667C5.89824 2.16667 2.16699 5.89792 2.16699 10.5C2.16699 15.1021 5.89824 18.8333 10.5003 18.8333C15.1024 18.8333 18.8337 15.1021 18.8337 10.5C18.8337 9.94126 18.7762 9.39584 18.6716 8.86792Z" fill="#FFC107"/>
<path d="M3.12793 6.62125L5.86585 8.62917C6.60668 6.79501 8.40085 5.50001 10.5004 5.50001C11.775 5.50001 12.9346 5.98084 13.8175 6.76625L16.1746 4.40917C14.6863 3.02209 12.6954 2.16667 10.5004 2.16667C7.2996 2.16667 4.52376 3.97376 3.12793 6.62125Z" fill="#FF3D00"/>
<path d="M10.4998 18.8333C12.6523 18.8333 14.6081 18.0096 16.0869 16.67L13.5077 14.4875C12.6431 15.1454 11.5863 15.5012 10.4998 15.5C8.3323 15.5 6.49189 14.1179 5.79855 12.1892L3.08105 14.2829C4.46022 16.9817 7.26105 18.8333 10.4998 18.8333Z" fill="#4CAF50"/>
<path d="M18.6712 8.86791H18V8.83333H10.5V12.1667H15.2096C14.8809 13.0902 14.2889 13.8972 13.5067 14.4879L13.5079 14.4871L16.0871 16.6696C15.9046 16.8354 18.8333 14.6667 18.8333 10.5C18.8333 9.94124 18.7758 9.39583 18.6712 8.86791Z" fill="#1976D2"/>
</svg>
