<svg width="51" height="22" viewBox="0 0 51 22" fill="none" xmlns="http://www.w3.org/2000/svg">
<g clip-path="url(#clip0_209_1318)">
<path d="M36.0537 6.33663C37.4519 6.33663 38.5325 6.718 39.3588 7.48075C40.185 8.24339 40.5663 9.26035 40.5663 10.5315V16.6331H38.7867V15.2349H38.7231C37.9605 16.3791 36.8799 16.9511 35.6087 16.9511C34.5282 16.9511 33.5748 16.6332 32.8122 15.9977C32.113 15.3621 31.6681 14.4723 31.6681 13.5189C31.6681 12.5019 32.0494 11.6756 32.8122 11.0401C33.5748 10.4045 34.6554 10.1502 35.9265 10.1502C37.0706 10.1502 37.9605 10.341 38.6595 10.7858V10.341C38.6595 9.74772 38.4381 9.15455 37.9951 8.76801L37.8968 8.68844C37.3883 8.24349 36.7528 7.98928 36.0537 7.98928C34.9732 7.98928 34.1469 8.43419 33.5748 9.32403L31.9224 8.30687C32.9392 6.97212 34.274 6.33663 36.0537 6.33663ZM27.0919 2.01459C28.2323 2.01459 29.3162 2.41146 30.1827 3.15155L30.3334 3.28566C31.2232 4.0484 31.6681 5.19252 31.6681 6.40011C31.6681 7.60771 31.2232 8.68824 30.3334 9.51446C29.4436 10.3407 28.3631 10.7856 27.0919 10.7856L24.0411 10.7221V16.6331H22.1343V2.01459H27.0919ZM36.3078 11.6755C35.5451 11.6755 34.9096 11.8662 34.4012 12.2475C33.8927 12.5653 33.6384 13.0102 33.6384 13.5822C33.6384 14.0907 33.8927 14.5356 34.274 14.7899C34.7189 15.1077 35.2274 15.2983 35.7359 15.2983C36.4477 15.2983 37.1596 15.0215 37.7164 14.5195L37.8333 14.4085C38.4689 13.8365 38.7867 13.1373 38.7867 12.3746C38.2147 11.9298 37.3883 11.6754 36.3079 11.6754M27.2192 3.79409H24.0412V8.87908H27.2192C27.9182 8.87908 28.6174 8.62486 29.0623 8.11643C30.0792 7.16305 30.0792 5.57409 29.1259 4.62061L29.0623 4.55703C28.5538 4.0486 27.9182 3.73081 27.2191 3.79439M50.8628 6.65443L44.5705 21.0823H42.6638L45.0154 16.0612L40.8841 6.71801H42.918L45.9052 13.9001H45.9688L48.8925 6.71801H50.8628V6.65443Z" fill="#5F6368"/>
<path d="M16.4775 9.45098C16.4775 8.87897 16.414 8.30696 16.3504 7.73495H8.40576V10.9765H12.9183C12.7277 11.9933 12.1557 12.9467 11.2659 13.5188V15.6162H13.9989C15.5878 14.1544 16.4776 11.9933 16.4776 9.45108" fill="#4285F4"/>
<path d="M8.40564 17.6501C10.6937 17.6501 12.6004 16.8874 13.9988 15.6162L11.2658 13.5188C10.503 14.0272 9.54965 14.345 8.40564 14.345C6.24457 14.345 4.33781 12.8832 3.70222 10.8493H0.905762V13.0103C2.36757 15.8704 5.22771 17.6501 8.40564 17.6501Z" fill="#34A853"/>
<path d="M3.70223 10.8493C3.32096 9.83236 3.32096 8.68835 3.70223 7.60781V5.44684H0.90577C-0.301923 7.79855 -0.301923 10.5951 0.90577 13.0103L3.70223 10.8493Z" fill="#FBBC04"/>
<path d="M8.40564 4.17566C9.61323 4.17566 10.7572 4.62061 11.6471 5.44683L14.0623 3.03164C12.5368 1.63331 10.503 0.807089 8.46912 0.870568C5.29119 0.870568 2.36757 2.65027 0.969238 5.51041L3.7658 7.67138C4.33781 5.63747 6.24456 4.17566 8.40564 4.17566Z" fill="#EA4335"/>
</g>
<defs>
<clipPath id="clip0_209_1318">
<rect width="50.8628" height="20.2656" fill="white" transform="translate(0 0.867188)"/>
</clipPath>
</defs>
</svg>
