<svg width="43" height="32" viewBox="0 0 43 32" fill="none" xmlns="http://www.w3.org/2000/svg">
<g clip-path="url(#clip0_209_1285)">
<path d="M8.33077 31.841V29.723C8.33077 28.9109 7.83646 28.3816 6.98919 28.3816C6.56563 28.3816 6.10669 28.5228 5.78894 28.9817C5.54195 28.5934 5.18898 28.3816 4.65946 28.3816C4.30633 28.3816 3.95353 28.4874 3.67099 28.8757V28.4522H2.92969V31.841H3.67099V29.97C3.67099 29.37 3.98874 29.0875 4.48305 29.0875C4.97704 29.0875 5.22436 29.4053 5.22436 29.97V31.841H5.96567V29.97C5.96567 29.37 6.31847 29.0875 6.77741 29.0875C7.27172 29.0875 7.51871 29.4053 7.51871 29.97V31.841H8.33077ZM19.309 28.4522H18.1089V27.4285H17.3676V28.4522H16.6969V29.1227H17.3675V30.6761C17.3675 31.4528 17.6852 31.9115 18.5325 31.9115C18.8503 31.9115 19.2031 31.8057 19.4504 31.6646L19.2384 31.0291C19.0267 31.1702 18.7797 31.2056 18.6031 31.2056C18.2501 31.2056 18.1089 30.9938 18.1089 30.6407V29.1227H19.309V28.4522ZM25.5926 28.3814C25.169 28.3814 24.8867 28.5934 24.7101 28.8757V28.4522H23.9688V31.841H24.7101V29.9348C24.7101 29.37 24.9571 29.0523 25.416 29.0523C25.5572 29.0523 25.7338 29.0877 25.875 29.1229L26.0868 28.417C25.9456 28.3816 25.7338 28.3816 25.5926 28.3816M16.0968 28.7347C15.7437 28.4875 15.2495 28.3817 14.72 28.3817C13.8729 28.3817 13.3081 28.8053 13.3081 29.476C13.3081 30.0409 13.7317 30.3585 14.473 30.4645L14.826 30.4998C15.2143 30.5703 15.4261 30.6762 15.4261 30.8528C15.4261 31.0998 15.1437 31.2764 14.6494 31.2764C14.1551 31.2764 13.7669 31.0998 13.5198 30.9234L13.1668 31.4881C13.5551 31.7705 14.0847 31.9117 14.614 31.9117C15.6025 31.9117 16.1674 31.4529 16.1674 30.8174C16.1674 30.2173 15.7085 29.8996 15.0024 29.7938L14.6494 29.7584C14.3317 29.723 14.0847 29.6526 14.0847 29.4408C14.0847 29.1936 14.3317 29.0524 14.72 29.0524C15.1437 29.0524 15.5673 29.2289 15.7791 29.3348L16.0968 28.7347ZM35.7945 28.3817C35.3708 28.3817 35.0884 28.5935 34.9118 28.8759V28.4523H34.1705V31.8411H34.9118V29.9349C34.9118 29.3702 35.159 29.0524 35.6178 29.0524C35.7591 29.0524 35.9357 29.0878 36.0769 29.123L36.2886 28.4171C36.1475 28.3817 35.9357 28.3817 35.7945 28.3817ZM26.3339 30.1467C26.3339 31.1704 27.0398 31.9117 28.1343 31.9117C28.6284 31.9117 28.9814 31.8059 29.3344 31.5235L28.9814 30.9234C28.699 31.1352 28.4166 31.241 28.0989 31.241C27.4988 31.241 27.0752 30.8174 27.0752 30.1467C27.0752 29.5114 27.4988 29.0877 28.0989 29.0524C28.4166 29.0524 28.699 29.1583 28.9814 29.3702L29.3344 28.7701C28.9814 28.4875 28.6284 28.3817 28.1343 28.3817C27.0398 28.3817 26.3339 29.123 26.3339 30.1467ZM33.1822 30.1467V28.4523H32.4409V28.8759C32.1938 28.5583 31.8408 28.3817 31.3819 28.3817C30.4288 28.3817 29.6875 29.123 29.6875 30.1467C29.6875 31.1704 30.4288 31.9117 31.3819 31.9117C31.876 31.9117 32.2291 31.7353 32.4409 31.4176V31.8411H33.1822V30.1467ZM30.464 30.1467C30.464 29.5466 30.8523 29.0524 31.4877 29.0524C32.0878 29.0524 32.5115 29.5114 32.5115 30.1467C32.5115 30.7468 32.0878 31.241 31.4877 31.241C30.8523 31.2056 30.464 30.7468 30.464 30.1467ZM21.6037 28.3817C20.6152 28.3817 19.9091 29.0877 19.9091 30.1467C19.9091 31.2058 20.6151 31.9117 21.6389 31.9117C22.1331 31.9117 22.6274 31.7705 23.0157 31.4529L22.6626 30.9234C22.3802 31.1352 22.0273 31.2764 21.6743 31.2764C21.2154 31.2764 20.7564 31.0646 20.6505 30.4643H23.1569V30.1821C23.1923 29.0877 22.5569 28.3817 21.6037 28.3817ZM21.6035 29.0171C22.0623 29.0171 22.3802 29.2996 22.4507 29.8291H20.6857C20.7563 29.3702 21.074 29.0171 21.6035 29.0171ZM39.995 30.1467V27.1109H39.2537V28.8759C39.0066 28.5583 38.6536 28.3817 38.1947 28.3817C37.2416 28.3817 36.5003 29.123 36.5003 30.1467C36.5003 31.1704 37.2416 31.9117 38.1947 31.9117C38.689 31.9117 39.0419 31.7353 39.2537 31.4176V31.8411H39.995V30.1467ZM37.2769 30.1467C37.2769 29.5466 37.6651 29.0524 38.3006 29.0524C38.9007 29.0524 39.3243 29.5114 39.3243 30.1467C39.3243 30.7468 38.9007 31.241 38.3006 31.241C37.6651 31.2056 37.2769 30.7468 37.2769 30.1467ZM12.4959 30.1467V28.4523H11.7546V28.8759C11.5075 28.5583 11.1545 28.3817 10.6956 28.3817C9.74247 28.3817 9.00117 29.123 9.00117 30.1467C9.00117 31.1704 9.74247 31.9117 10.6956 31.9117C11.1899 31.9117 11.5428 31.7353 11.7546 31.4176V31.8411H12.4959V30.1467ZM9.74247 30.1467C9.74247 29.5466 10.1308 29.0524 10.7662 29.0524C11.3663 29.0524 11.79 29.5114 11.79 30.1467C11.79 30.7468 11.3663 31.241 10.7662 31.241C10.1308 31.2056 9.74247 30.7468 9.74247 30.1467Z" fill="black"/>
<path d="M15.8501 2.71808H26.9697V22.6981H15.8501V2.71808Z" fill="#FF5F00"/>
<path d="M16.556 12.7082C16.556 8.64868 18.4621 5.04796 21.392 2.71807C19.2388 1.02368 16.5207 0 13.5555 0C6.53046 0 0.847168 5.6833 0.847168 12.7082C0.847168 19.7331 6.53046 25.4164 13.5553 25.4164C16.5206 25.4164 19.2386 24.3927 21.392 22.6981C18.4621 20.4036 16.556 16.7677 16.556 12.7082Z" fill="#EB001B"/>
<path d="M41.972 12.7082C41.972 19.7329 36.2888 25.4164 29.2639 25.4164C26.2986 25.4164 23.5806 24.3927 21.4272 22.6981C24.3925 20.3684 26.2634 16.7677 26.2634 12.7082C26.2634 8.64868 24.3571 5.04796 21.4272 2.71807C23.5804 1.02368 26.2986 0 29.2639 0C36.2888 0 41.972 5.71867 41.972 12.7082Z" fill="#F79E1B"/>
</g>
<defs>
<clipPath id="clip0_209_1285">
<rect width="41.1658" height="32" fill="white" transform="translate(0.847168)"/>
</clipPath>
</defs>
</svg>
