<svg width="50" height="22" viewBox="0 0 50 22" fill="none" xmlns="http://www.w3.org/2000/svg">
<g clip-path="url(#clip0_209_1324)">
<path d="M9.13635 3.34404C8.55041 4.0374 7.61271 4.58447 6.67512 4.50625C6.55793 3.56875 7.01691 2.57246 7.55412 1.95713C8.14006 1.24424 9.16564 0.736328 9.99582 0.697266C10.0935 1.67393 9.71252 2.63105 9.13635 3.34404ZM9.98615 4.69189C8.62853 4.61377 7.46633 5.46338 6.8217 5.46338C6.1674 5.46338 5.18088 4.73096 4.10656 4.75049C2.70998 4.77002 1.41096 5.56104 0.697968 6.821C-0.767071 9.34082 0.317109 13.0718 1.73322 15.1228C2.42668 16.1385 3.25685 17.2519 4.3507 17.2128C5.38605 17.1737 5.79621 16.539 7.04641 16.539C8.30627 16.539 8.6677 17.2128 9.76154 17.1933C10.8945 17.1737 11.6074 16.1776 12.3009 15.1618C13.0919 14.0094 13.4143 12.8861 13.4338 12.8275C13.4143 12.808 11.2461 11.9779 11.2266 9.47754C11.2071 7.3875 12.9358 6.39131 13.0139 6.33272C12.0371 4.88721 10.5136 4.73096 9.98615 4.69189ZM17.8289 1.85947V17.0859H20.1924V11.8803H23.4643C26.4528 11.8803 28.5528 9.8293 28.5528 6.86016C28.5528 3.89111 26.4919 1.85957 23.5424 1.85957L17.8289 1.85947ZM20.1924 3.85195H22.9173C24.9684 3.85195 26.1404 4.9458 26.1404 6.86982C26.1404 8.79385 24.9684 9.89756 22.9075 9.89756H20.1924V3.85195ZM32.8695 17.203C34.3541 17.203 35.7312 16.4511 36.3563 15.2595H36.4051V17.0858H38.5929V9.50684C38.5929 7.30937 36.8349 5.89316 34.1294 5.89316C31.6194 5.89316 29.7637 7.32891 29.6953 9.30176H31.8245C32.0003 8.36416 32.8695 7.74883 34.0611 7.74883C35.5066 7.74883 36.3172 8.42275 36.3172 9.66318V10.503L33.3676 10.6788C30.6232 10.8448 29.1387 11.9681 29.1387 13.9215C29.1387 15.8943 30.672 17.203 32.8695 17.203ZM33.5043 15.3962C32.2445 15.3962 31.4436 14.7907 31.4436 13.8628C31.4436 12.9058 32.2152 12.349 33.69 12.2611L36.3172 12.0951V12.9545C36.3172 14.3805 35.1062 15.3962 33.5044 15.3962M41.5132 21.227C43.8182 21.227 44.9023 20.348 45.8496 17.6816L50.0004 6.03965H47.5978L44.8143 15.0348H44.7654L41.9819 6.03965H39.511L43.5153 17.1249L43.3004 17.7988C42.9391 18.9415 42.353 19.3811 41.308 19.3811C41.1225 19.3811 40.7612 19.3615 40.6146 19.342V21.1684C40.7513 21.2074 41.3372 21.227 41.5131 21.227" fill="black"/>
</g>
<defs>
<clipPath id="clip0_209_1324">
<rect width="50" height="20.6055" fill="white" transform="translate(0 0.697266)"/>
</clipPath>
</defs>
</svg>
