<svg width="190" height="190" viewBox="0 0 190 190" fill="none" xmlns="http://www.w3.org/2000/svg">
<path d="M24.3438 47.0992C24.3438 47.0992 14.7696 47.8562 13.4931 50.0086C12.2017 52.1609 12.1274 55.4711 12.1274 59.1078C12.1274 62.7593 11.979 71.1312 11.979 71.1312L14.2649 76.0445C14.2649 76.0445 14.6954 138.67 14.6954 140.615C14.6954 142.545 14.6954 144.905 17.486 146.404C20.2767 147.903 91.2001 182.162 93.4118 183.083C96.7517 184.463 98.3399 183.944 98.3399 183.944L177.145 52.1461C177.145 52.1461 176.893 48.539 173.613 47.6781C171.727 47.2031 24.3438 47.0992 24.3438 47.0992Z" fill="#F5B03E"/>
<path d="M97.4934 90.4281C96.291 93.7383 96.8403 127.968 97.0481 152.861C97.2559 177.739 96.4098 182.89 97.0481 183.751C97.6863 184.612 99.4231 183.78 104.336 181.598C113.465 177.561 157.314 155.859 160.535 153.93C163.756 152 171.623 148.007 172.914 145.855C174.206 143.702 174.904 123.678 175.334 107.602C175.764 91.5117 176.195 78.6422 176.195 78.6422L178.125 72.8531C178.125 72.8531 177.709 57.2078 177.635 55.4859C177.501 52.6359 177.189 51.1664 176.462 51.5226C175.423 52.0125 166.754 59.1226 143.806 70.2851C129.393 77.2766 98.3246 88.1422 97.4934 90.4281Z" fill="#E07F14"/>
<path d="M97.7024 16.6398C91.2751 16.343 73.6853 26.5109 56.7337 32.0773C39.7821 37.6437 14.1915 48.8359 13.9689 49.4891C13.761 50.1273 24.2704 54.8328 30.9798 58.0539C38.9509 61.8687 69.3806 76.282 74.947 78.6422C80.5282 81.0023 93.8282 86.5242 95.9657 86.3609C98.9642 86.1531 127.286 74.9906 141.655 68.1328C156.024 61.275 173.984 50.6469 174.222 48.0641C174.326 46.9062 147.8 37.0055 134.574 31.0234C109.043 19.4602 102.408 16.8625 97.7024 16.6398Z" fill="#FDD717"/>
<path d="M12.0538 73.8773C12.2765 76.668 13.8054 77.6625 17.6944 79.3547C21.5835 81.0469 95.1046 119.24 96.7968 119.24C98.489 119.24 98.9936 113.184 97.1382 113.347C96.1288 113.436 71.978 101.962 49.4155 90.5023C30.2671 80.7945 11.9351 71.1016 11.9351 71.1016L12.0538 73.8773Z" fill="#E37D14"/>
<path d="M178.139 72.7195C178.139 72.7195 99.6306 112.649 98.8587 113.035C98.0868 113.421 96.8548 113.287 96.8548 113.287L96.7954 119.24C96.7954 119.24 97.5228 119.403 98.3392 119.151C98.8142 119.002 175.868 79.1171 176.209 78.9984C176.551 78.8796 178.035 77.989 178.347 76.1039C178.614 74.5898 178.139 72.7195 178.139 72.7195Z" fill="#BA5E0D"/>
<path d="M42.8383 144.608L58.2016 167.467L64.9258 169.768C64.9258 169.768 65.475 144.83 65.6977 126.35C66.0094 99.3492 65.8906 74.7235 66.2766 73.3281C66.9148 70.968 96.7953 61.275 96.7953 61.275C96.7953 61.275 130.55 71.8586 131.619 74.2188C132.094 75.2578 131.723 92.7438 131.619 113.124C131.485 138.863 131.53 168.58 131.53 168.58C131.53 168.58 135.018 168.566 135.434 167.274C135.864 165.983 137.586 156.023 137.586 156.023L150.678 68.7563L157.328 60.1766L148.095 42.6016L110.214 23.9578L97.1961 26.882L83.1094 24.7297L38.4297 56.8367L43.6398 67.4055L56.4203 73.9219L42.8383 144.608Z" fill="#AF0F1B"/>
<path d="M135.494 73.3133C134.678 75.1094 135.153 167.66 135.153 167.66C135.153 167.66 139.235 165.404 144.489 162.881C149.714 160.372 153.47 158.813 153.796 157.507C154.123 156.201 154.702 64.6743 154.702 64.6743L135.494 73.3133Z" fill="#DC0D28"/>
<path d="M61.3781 71.3984C61.868 71.9328 61.0664 167.972 60.0719 168.195C59.2852 168.387 41.3984 160.402 41.3984 159.585C41.3984 158.769 42.8383 66.9898 42.8383 66.9898C42.8383 66.9898 59.9234 69.7656 61.3781 71.3984ZM96.825 21.1523C91.882 21.1523 86.4195 22.5625 84.8313 26.7039C83.243 30.8453 82.8867 37.0055 82.8867 41.607C82.8867 46.0156 82.1742 57.2969 95.7563 57.1187C109.338 56.9406 109.739 51.9086 109.947 40.8055C110.125 31.543 108.893 27.0453 107.661 25.1156C106.563 23.3789 102.911 21.1523 96.825 21.1523Z" fill="#FF2A23"/>
<path d="M88.9731 44.0711C92.0606 44.2492 93.3817 37.4656 95.7567 33.7547C98.1317 30.0586 100.611 27.5797 99.72 25.65C98.9926 24.0469 92.5356 23.5273 89.0473 28.3813C86.5981 31.8102 86.1676 43.9078 88.9731 44.0711Z" fill="#FCC9D2"/>
<path d="M108.85 24.3734C108.85 24.3734 113.229 28.8265 114.371 37.5547C115.514 46.2828 114.193 53.0664 114.193 53.0664C114.193 53.0664 135.954 52.4133 143.465 53.8531C150.872 55.2929 153.455 58.5586 153.455 60.9336C153.455 63.3086 148.586 65.2234 143.643 64.8672C138.7 64.5109 135.361 64.2437 134.737 65.4906C134.114 66.7375 135.004 68.6672 141.877 69.1867C148.75 69.7211 156.691 68.7414 159.155 60.1914C161.619 51.6414 161.708 36.8273 160.832 26.1547C159.957 15.482 158.027 9.38123 153.247 7.0656C148.215 4.64607 135.613 4.24529 123.708 10.9398C111.804 17.6344 108.85 24.3734 108.85 24.3734Z" fill="#FF2A23"/>
<path d="M133.505 14.2203C131.961 12.2313 126.989 12.2907 124.332 15.3633C121.511 18.6289 120.888 31.0532 124.51 31.7657C128.607 32.5672 127.864 25.8578 130.863 21.7164C133.802 17.6641 135.004 16.1649 133.505 14.2203Z" fill="#FCC9D2"/>
<path d="M83.6881 24.8039C83.6881 24.8039 67.0186 5.37342 47.9741 5.6703C36.5147 5.84842 33.6053 12.4539 32.9819 15.1851C32.3584 17.9164 27.6084 45.0805 33.9467 59.7906C40.285 74.5008 53.4366 70.6859 55.4998 70.2109C58.142 69.5875 63.7678 67.6578 63.2334 65.6242C62.6991 63.5906 44.0108 70.9086 43.8327 62.5367C43.6545 54.1648 57.0584 53.2742 63.2334 53.0961C69.4084 52.918 79.992 54.3281 79.992 54.3281C79.992 54.3281 78.1366 44.1898 79.3686 36.9609C80.6006 29.732 83.6881 24.8039 83.6881 24.8039Z" fill="#FF2A23"/>
<path d="M42.8692 12.7211C40.4942 15.1851 39.5145 29.3906 41.0137 36.4414C42.5129 43.4922 43.834 46.4906 46.9215 45.882C49.5044 45.3625 51.0629 31.5281 52.295 26.6594C53.6161 21.464 56.8817 15.9422 55.5606 13.5226C53.5419 9.81171 45.3481 10.1531 42.8692 12.7211Z" fill="#FCC9D2"/>
</svg>
