<svg width="542" height="74" viewBox="0 0 542 74" fill="none" xmlns="http://www.w3.org/2000/svg">
<path d="M0.674219 72V2H24.8742C39.1742 2 47.6742 10.4 47.6742 23.5C47.6742 36.1 39.3742 44.9 25.1742 44.9H15.8742V72H0.674219ZM23.5742 14.3H15.8742V33H23.5742C29.2742 33 32.7742 29.9 32.7742 23.7C32.7742 17.5 29.2742 14.3 23.5742 14.3ZM43.5219 72L60.9219 2H79.9219L97.3219 72H81.6219L78.4219 57.3H61.5219L58.2219 72H43.5219ZM64.2219 45L64.0219 45.8H75.9219L75.7219 45L69.9219 17.8L64.2219 45ZM147.61 30.9H133.01C132.11 18.9 128.71 13.5 123.21 13.5C116.71 13.5 113.21 20.6 113.21 37C113.21 53.4 116.71 60.5 123.21 60.5C128.91 60.5 132.31 54.8 133.11 42.1H147.61C146.31 62.5 137.31 73.2 123.11 73.2C107.31 73.2 97.9102 60.9 97.9102 37C97.9102 13.1 107.31 0.799999 123.11 0.799999C137.11 0.799999 146.21 11.1 147.61 30.9ZM153.452 72V2H168.452L168.152 31.7L186.352 2H202.052L184.852 29.9L202.752 72H186.252L174.952 43.3L168.252 53.5L168.452 72H153.452ZM226.592 72V2H246.092C263.992 2 275.492 14.4 275.492 37.2C275.492 59.8 263.692 72 245.492 72H226.592ZM245.392 14.6H241.792V59.6H245.392C254.792 59.6 260.192 52.8 260.192 37.2C260.192 21.3 254.792 14.6 245.392 14.6ZM281.62 72V2H323.32V14.4H296.82V29.7H316.82V41.9H296.82V59.8H323.32V72H281.62ZM345.595 72V14.4H328.695V2H377.795V14.4H360.795V72H345.595ZM370.608 72L388.008 2H407.008L424.408 72H408.708L405.508 57.3H388.608L385.308 72H370.608ZM391.308 45L391.108 45.8H403.008L402.808 45L397.008 17.8L391.308 45ZM428.735 72V2H443.835V72H428.735ZM451.143 72V2H466.343V59.7H492.643V72H451.143ZM519.788 73.1C504.788 73.1 496.488 64.3 495.688 48.1H509.988C510.488 57.1 513.288 61 519.288 61C524.288 61 526.988 58 526.988 54.2C526.988 48.3 521.488 45.6 515.188 42.6C506.488 38.5 496.088 33.9 496.088 20.4C496.088 8.8 504.188 0.899997 517.088 0.899997C530.888 0.899997 539.588 9.2 540.588 24.8H526.688C525.988 17.1 522.888 13.1 517.488 13.1C513.088 13.1 510.788 15.5 510.788 19.2C510.788 24.8 516.388 27.5 522.888 30.6C531.488 34.7 541.588 39.4 541.588 52.9C541.588 64.7 533.188 73.1 519.788 73.1Z" fill="url(#paint0_linear_156_3201)" fill-opacity="0.03"/>
<defs>
<linearGradient id="paint0_linear_156_3201" x1="270.866" y1="-20.5" x2="270.866" y2="90" gradientUnits="userSpaceOnUse">
<stop/>
<stop offset="1" stop-color="#666666"/>
</linearGradient>
</defs>
</svg>
