<svg width="281" height="74" viewBox="0 0 281 74" fill="none" xmlns="http://www.w3.org/2000/svg">
<path d="M0.808984 72V2H25.009C39.309 2 47.809 10.4 47.809 23.5C47.809 36.1 39.509 44.9 25.309 44.9H16.009V72H0.808984ZM23.709 14.3H16.009V33H23.709C29.409 33 32.909 29.9 32.909 23.7C32.909 17.5 29.409 14.3 23.709 14.3ZM78.1879 73.2C62.1879 73.2 52.5879 60.9 52.5879 37C52.5879 13.1 62.1879 0.799999 78.1879 0.799999C94.0879 0.799999 103.688 13.1 103.688 37C103.688 60.9 94.0879 73.2 78.1879 73.2ZM78.1879 60.5C84.7879 60.5 88.3879 53.4 88.3879 37C88.3879 20.6 84.7879 13.5 78.1879 13.5C71.4879 13.5 67.8879 20.6 67.8879 37C67.8879 53.4 71.4879 60.5 78.1879 60.5ZM109.887 72V2H125.087V59.7H151.387V72H109.887ZM157.397 72V2H172.497V72H157.397ZM228.405 30.9H213.805C212.905 18.9 209.505 13.5 204.005 13.5C197.505 13.5 194.005 20.6 194.005 37C194.005 53.4 197.505 60.5 204.005 60.5C209.705 60.5 213.105 54.8 213.905 42.1H228.405C227.105 62.5 218.105 73.2 203.905 73.2C188.105 73.2 178.705 60.9 178.705 37C178.705 13.1 188.105 0.799999 203.905 0.799999C217.905 0.799999 227.005 11.1 228.405 30.9ZM245.666 72V47.4L225.866 2H242.066L253.666 30.4L265.166 2H280.666L260.766 47.4V72H245.666Z" fill="url(#paint0_linear_154_1856)" fill-opacity="0.03"/>
<defs>
<linearGradient id="paint0_linear_154_1856" x1="139.189" y1="-20.5" x2="139.189" y2="90" gradientUnits="userSpaceOnUse">
<stop/>
<stop offset="1" stop-color="#666666"/>
</linearGradient>
</defs>
</svg>
