<svg width="322" height="74" viewBox="0 0 322 74" fill="none" xmlns="http://www.w3.org/2000/svg">
<path d="M0.752344 72V2H24.9523C39.2523 2 47.7523 10.4 47.7523 23.5C47.7523 36.1 39.4523 44.9 25.2523 44.9H15.9523V72H0.752344ZM23.6523 14.3H15.9523V33H23.6523C29.3523 33 32.8523 29.9 32.8523 23.7C32.8523 17.5 29.3523 14.3 23.6523 14.3ZM53.6313 72V2H78.5313C92.5313 2 100.431 9.6 100.431 21.1C100.431 28.3 97.2313 34.2 91.2313 37.4C97.5313 39.8 98.7313 45.1 98.8313 51.9C98.9313 58.9 98.8313 66 101.531 72H86.1313C83.8313 68.3 83.8313 62.9 83.8313 50.6C83.7313 45.8 82.0313 43.4 77.8313 43.4H68.8313V72H53.6313ZM77.0313 14.2H68.8313V31.6H77.0313C82.2313 31.6 85.5313 28.6 85.5313 22.9C85.5313 17.2 82.3313 14.2 77.0313 14.2ZM130.424 73.2C114.424 73.2 104.824 60.9 104.824 37C104.824 13.1 114.424 0.799999 130.424 0.799999C146.324 0.799999 155.924 13.1 155.924 37C155.924 60.9 146.324 73.2 130.424 73.2ZM130.424 60.5C137.024 60.5 140.624 53.4 140.624 37C140.624 20.6 137.024 13.5 130.424 13.5C123.724 13.5 120.124 20.6 120.124 37C120.124 53.4 123.724 60.5 130.424 60.5ZM162.123 72V2H203.823V14.4H177.323V29.9H197.223V42.2H177.323V72H162.123ZM209.731 72V2H224.831V72H209.731ZM232.139 72V2H247.339V59.7H273.639V72H232.139ZM279.549 72V2H321.249V14.4H294.749V29.7H314.749V41.9H294.749V59.8H321.249V72H279.549Z" fill="url(#paint0_linear_113_1072)" fill-opacity="0.03"/>
<defs>
<linearGradient id="paint0_linear_113_1072" x1="160.718" y1="-20.5" x2="160.718" y2="90" gradientUnits="userSpaceOnUse">
<stop/>
<stop offset="1" stop-color="#666666"/>
</linearGradient>
</defs>
</svg>
