<svg width="313" height="58" viewBox="0 0 313 58" fill="none" xmlns="http://www.w3.org/2000/svg">
<path d="M14.4975 57V10.92H0.977494V0.999996H40.2575V10.92H26.6575V57H14.4975ZM44.4862 57V0.999996H64.4062C75.6062 0.999996 81.9262 7.08 81.9262 16.28C81.9262 22.04 79.3662 26.76 74.5662 29.32C79.6062 31.24 80.5662 35.48 80.6462 40.92C80.7262 46.52 80.6462 52.2 82.8062 57H70.4862C68.6462 54.04 68.6462 49.72 68.6462 39.88C68.5662 36.04 67.2062 34.12 63.8462 34.12H56.6462V57H44.4862ZM63.2062 10.76H56.6462V24.68H63.2062C67.3662 24.68 70.0062 22.28 70.0062 17.72C70.0062 13.16 67.4462 10.76 63.2062 10.76ZM87.1019 57V0.999996H120.462V10.92H99.2619V23.16H115.262V32.92H99.2619V47.24H120.462V57H87.1019ZM125.421 57V0.999996H138.781L145.821 19.24L152.781 37.72L152.621 19.24L152.541 0.999996H162.701V57H149.261L142.221 38.92L135.341 20.76L135.581 38.92L135.661 57H125.421ZM168.427 57V0.999996H184.027C198.347 0.999996 207.547 10.92 207.547 29.16C207.547 47.24 198.107 57 183.547 57H168.427ZM183.467 11.08H180.587V47.08H183.467C190.987 47.08 195.307 41.64 195.307 29.16C195.307 16.44 190.987 11.08 183.467 11.08ZM212.529 57V0.999996H224.609V57H212.529ZM230.455 57V0.999996H243.815L250.855 19.24L257.815 37.72L257.655 19.24L257.575 0.999996H267.735V57H254.295L247.255 38.92L240.375 20.76L240.615 38.92L240.695 57H230.455ZM302.021 57V49.96C299.381 55.08 295.461 57.72 290.421 57.72C279.381 57.72 272.581 47.88 272.581 29C272.581 9.8 280.101 0.039999 292.901 0.039999C303.701 0.039999 310.901 7.24 312.341 21.08H300.661C299.861 13.64 297.061 10.12 292.981 10.12C287.621 10.12 284.821 15.8 284.821 29C284.821 42.28 287.701 47.88 293.141 47.88C297.781 47.88 300.821 43.88 301.701 34.92H292.741V25.48H312.581V57H302.021Z" fill="url(#paint0_linear_116_2083)" fill-opacity="0.02"/>
<defs>
<linearGradient id="paint0_linear_116_2083" x1="157.5" y1="-33" x2="157.5" y2="93" gradientUnits="userSpaceOnUse">
<stop/>
<stop offset="1" stop-color="#525252"/>
</linearGradient>
</defs>
</svg>
